#!OML:ASF G:\JayActor3\Patient Classification 1\Patient 1\Session 2\male.ASF
:FULLY-SPECIFIED
:DEGREES
2458
root -26.5569 16.3411 -6.09897 175.349 -98.0806 -546.86
lowerback 7.20213 -0.320495 0.165471
upperback -2.50937 -0.445436 -0.468065
thorax -6.67396 -0.238218 -0.525041
lowerneck -1.78928 -3.3918 -3.87854
upperneck 1.73399 -4.68123 8.22683
head 1.18086 -2.29934 3.24957
rclavicle -1.16786e-014 -3.57812e-015
rhumerus -21.9724 29.8993 -78.7013
rradius 128.137
rwrist -32.5467
rhand -41.6716 24.963
rfingers 7.12502
rthumb -14.5788 -4.50466
lclavicle -1.16786e-014 -3.57812e-015
lhumerus -51.9006 -73.0724 135.387
lradius 89.4682
lwrist 41.5007
lhand -18.0354 13.5835
lfingers 7.12502
lthumb 8.23621 43.403
rfemur -14.0992 6.01401 27.6251
rtibia 39.486
rfoot -11.7195 -2.77948
rtoes 24.4687
lfemur -7.22175 11.6236 -13.2216
ltibia 80.6283
lfoot 20.6001 -5.26006
ltoes 5.1077
2459
root -26.6857 16.3638 -6.08463 182.019 -98.7164 -553.946
lowerback 7.71203 -0.499282 1.36018
upperback -2.38554 -0.536834 -0.137334
thorax -6.84598 -0.325357 -0.836068
lowerneck -1.77617 -3.42776 -3.87994
upperneck 1.70612 -4.728 8.2342
head 1.17299 -2.3232 3.25153
rclavicle 1.52567e-014 -3.97569e-015
rhumerus -21.8501 29.8844 -78.3217
rradius 128.192
rwrist -32.508
rhand -41.7062 24.952
rfingers 7.12502
rthumb -14.6121 -4.51325
lclavicle 1.52567e-014 -3.97569e-015
lhumerus -51.0656 -73.0999 134.815
lradius 89.4643
lwrist 41.4052
lhand -18.0858 13.5767
lfingers 7.12502
lthumb 8.18756 43.398
rfemur -12.7484 4.56461 28.6718
rtibia 38.4828
rfoot -11.6755 -2.33178
rtoes 24.2917
lfemur -11.1386 11.5257 -11.7063
ltibia 86.0762
lfoot 19.8723 -6.41096
ltoes 3.80477
2460
root -26.8163 16.3907 -6.07533 186.756 -99.4757 -559.122
lowerback 8.21862 -0.68126 2.33237
upperback -2.26259 -0.647145 0.164875
thorax -7.01932 -0.414491 -1.04707
lowerneck -1.7968 -3.47042 -3.88546
upperneck 1.79572 -4.79091 8.24558
head 1.21029 -2.35282 3.25438
rclavicle 6.55989e-015 -7.95139e-016
rhumerus -21.772 29.8857 -78.0025
rradius 128.179
rwrist -32.4297
rhand -41.6936 24.9484
rfingers 7.12502
rthumb -14.6 -4.51767
lclavicle 6.55989e-015 -7.95139e-016
lhumerus -50.3407 -73.1169 134.339
lradius 89.467
lwrist 41.4278
lhand -18.2757 13.6229
lfingers 7.12502
lthumb 8.00426 43.4513
rfemur -11.2969 3.24377 29.5977
rtibia 37.3555
rfoot -11.7197 -2.13502
rtoes 24.029
lfemur -15.0257 11.5286 -10.3173
ltibia 91.1934
lfoot 18.9752 -7.62789
ltoes 2.18374
2461
root -26.9487 16.4209 -6.07201 189.837 -100.242 -562.633
lowerback 8.68927 -0.846429 3.04405
upperback -2.14133 -0.758517 0.432155
thorax -7.17319 -0.494502 -1.14601
lowerneck -1.86812 -3.51888 -3.89835
upperneck 1.97834 -4.86698 8.26601
head 1.28809 -2.38663 3.26032
rclavicle -2.62893e-014 -1.78906e-014
rhumerus -21.7181 29.898 -77.76
rradius 128.096
rwrist -32.3426
rhand -41.6539 24.9495
rfingers 7.12502
rthumb -14.5617 -4.51941
lclavicle -2.62893e-014 -1.78906e-014
lhumerus -49.7612 -73.1209 133.978
lradius 89.4733
lwrist 41.5601
lhand -18.5857 13.7123
lfingers 7.12502
lthumb 7.70508 43.5519
rfemur -9.78719 2.17598 30.3974
rtibia 36.1429
rfoot -11.8782 -2.2028
rtoes 23.6819
lfemur -18.8904 11.7097 -9.08512
ltibia 95.9966
lfoot 17.9541 -8.6585
ltoes 0.368126
2462
root -27.0834 16.4538 -6.07401 191.711 -100.932 -564.888
lowerback 9.08113 -0.980466 3.49484
upperback -2.02949 -0.858003 0.661438
thorax -7.2886 -0.55829 -1.13887
lowerneck -1.9575 -3.56901 -3.90742
upperneck 2.196 -4.94784 8.29059
head 1.38099 -2.42193 3.26648
rclavicle 1.10325e-014 1.25234e-014
rhumerus -21.6829 29.9254 -77.6133
rradius 127.955
rwrist -32.2616
rhand -41.5967 24.941
rfingers 7.12502
rthumb -14.5066 -4.5319
lclavicle 1.10325e-014 1.25234e-014
lhumerus -49.3224 -73.0927 133.705
lradius 89.4695
lwrist 41.6971
lhand -18.8726 13.8005
lfingers 7.12502
lthumb 7.4281 43.6501
rfemur -8.26779 1.41868 31.0737
rtibia 34.8733
rfoot -12.1367 -2.49614
rtoes 23.2485
lfemur -22.7353 12.1263 -8.03809
ltibia 100.497
lfoot 16.711 -9.4155
ltoes -1.61271
2463
root -27.2188 16.4885 -6.08006 192.958 -101.505 -566.436
lowerback 9.37568 -1.07611 3.7511
upperback -1.9341 -0.932203 0.862028
thorax -7.36139 -0.601639 -1.05646
lowerneck -2.04796 -3.62062 -3.90128
upperneck 2.39978 -5.03039 8.31099
head 1.46931 -2.45816 3.2683
rclavicle 1.20265e-014 4.96962e-015
rhumerus -21.6626 29.9607 -77.5628
rradius 127.782
rwrist -32.2345
rhand -41.5115 24.9469
rfingers 7.12502
rthumb -14.4245 -4.53188
lclavicle 1.20265e-014 4.96962e-015
lhumerus -49.0579 -73.0406 133.538
lradius 89.4642
lwrist 41.8151
lhand -19.1174 13.8728
lfingers 7.12502
lthumb 7.19187 43.7306
rfemur -6.78296 0.957513 31.6751
rtibia 33.563
rfoot -12.4543 -2.95481
rtoes 22.6827
lfemur -26.5692 12.8043 -7.13981
ltibia 104.709
lfoot 15.2315 -9.96688
ltoes -3.53266
2464
root -27.3549 16.5249 -6.08766 194.032 -101.934 -567.724
lowerback 9.56398 -1.12306 3.89795
upperback -1.8577 -0.959387 1.04262
thorax -7.38913 -0.617365 -0.941953
lowerneck -2.12935 -3.67521 -3.8916
upperneck 2.56055 -5.11504 8.33968
head 1.54259 -2.49611 3.27244
rclavicle -4.42296e-015 6.55989e-015
rhumerus -21.6686 30.0015 -77.6034
rradius 127.613
rwrist -32.2598
rhand -41.4276 24.9314
rfingers 7.12502
rthumb -14.3437 -4.55308
lclavicle -4.42296e-015 6.55989e-015
lhumerus -48.9989 -72.983 133.51
lradius 89.468
lwrist 41.9164
lhand -19.2945 13.9036
lfingers 7.12502
lthumb 7.02083 43.7672
rfemur -5.35012 0.715562 32.2394
rtibia 32.2196
rfoot -12.7708 -3.4849
rtoes 22.0091
lfemur -30.3631 13.7691 -6.34825
ltibia 108.631
lfoot 13.5479 -10.4415
ltoes -5.28257
2465
root -27.4911 16.5628 -6.09458 195.257 -102.231 -569.082
lowerback 9.66332 -1.1253 4.02296
upperback -1.80587 -0.93366 1.21433
thorax -7.38918 -0.606504 -0.834034
lowerneck -2.17765 -3.72942 -3.88144
upperneck 2.64831 -5.19563 8.3791
head 1.58646 -2.53365 3.28089
rclavicle -7.95139e-015 1.80894e-014
rhumerus -21.7157 30.0492 -77.7249
rradius 127.474
rwrist -32.3164
rhand -41.3593 24.9036
rfingers 7.12502
rthumb -14.2779 -4.58557
lclavicle -7.95139e-015 1.80894e-014
lhumerus -49.171 -72.9295 133.648
lradius 89.4937
lwrist 41.9898
lhand -19.3809 13.9029
lfingers 7.12502
lthumb 6.93744 43.7692
rfemur -3.98069 0.578628 32.797
rtibia 30.8489
rfoot -13.0362 -3.99302
rtoes 21.2874
lfemur -34.0888 15.0076 -5.61575
ltibia 112.26
lfoot 11.7466 -10.9452
ltoes -6.73234
2466
root -27.6257 16.6006 -6.09882 196.8 -102.429 -570.7
lowerback 9.71698 -1.09217 4.19923
upperback -1.77888 -0.856211 1.38485
thorax -7.38834 -0.573054 -0.764818
lowerneck -2.20411 -3.79061 -3.86901
upperneck 2.67316 -5.2814 8.40953
head 1.60594 -2.57516 3.28603
rclavicle 1.84373e-014 -1.74931e-014
rhumerus -21.8114 30.0897 -77.9005
rradius 127.389
rwrist -32.416
rhand -41.2898 24.9004
rfingers 7.12502
rthumb -14.2109 -4.59351
lclavicle 1.84373e-014 -1.74931e-014
lhumerus -49.5602 -72.8952 133.955
lradius 89.5469
lwrist 42.0359
lhand -19.3868 13.8661
lfingers 7.12502
lthumb 6.93177 43.7326
rfemur -2.66814 0.431529 33.362
rtibia 29.4566
rfoot -13.2136 -4.41772
rtoes 20.4847
lfemur -37.7357 16.4888 -4.9219
ltibia 115.603
lfoot 9.9259 -11.5587
ltoes -7.92321
2467
root -27.7579 16.637 -6.09854 198.695 -102.56 -572.637
lowerback 9.7624 -1.03366 4.46822
upperback -1.77341 -0.733238 1.55708
thorax -7.40541 -0.52207 -0.752895
lowerneck -2.22437 -3.85203 -3.87487
upperneck 2.6516 -5.36382 8.44563
head 1.60985 -2.61584 3.29683
rclavicle -2.34566e-014 3.18055e-014
rhumerus -21.9455 30.125 -78.0959
rradius 127.367
rwrist -32.546
rhand -41.2046 24.9582
rfingers 7.12502
rthumb -14.1287 -4.54141
lclavicle -2.34566e-014 3.18055e-014
lhumerus -50.1299 -72.8838 134.411
lradius 89.6293
lwrist 42.062
lhand -19.3185 13.806
lfingers 7.12502
lthumb 6.99769 43.6703
rfemur -1.40209 0.200543 33.9256
rtibia 28.0558
rfoot -13.2999 -4.7072
rtoes 19.6896
lfemur -41.2891 18.1751 -4.27669
ltibia 118.669
lfoot 8.18537 -12.2929
ltoes -8.74707
